{"title":"Koffee With Karan - Season 4 - Alia Bhatt, Varun Dhawan and Sidd","uid":9424216,"size":285181227,"categoryP":"video","categoryS":"hd___tv_shows","magnet":"?xt=urn:btih:3f760cf86fcfa550edda033d3f51064f4ffac56e&amp;dn=Koffee+With+Karan+-+Season+4+-+Alia+Bhatt%2C+Varun+Dhawan+and+Sidd&amp;tr=udp%3A%2F%2Ftracker.openbittorrent.com%3A80&amp;tr=udp%3A%2F%2Fopen.demonii.com%3A1337&amp;tr=udp%3A%2F%2Ftracker.coppersurfer.tk%3A6969&amp;tr=udp%3A%2F%2Fexodus.desync.com%3A6969","seeders":1,"leechers":1,"uploader":"ashish.p","files":1,"time":1388659572,"description":"General\n\nComplete name : Koffee With Karan - Season 4 - Alia Bhatt, Varun Dhawan and Siddharth Malhotra -AshishRocks.MP4\nFormat :\tMPEG-4\nFormat profile : Base Media\nCodec ID : isom\nFile size :\t272 MiB\nDuration :\t 46mn 32s\nOverall bit rate mode : Variable\nOverall bit rate : 817 Kbps\nEncoded date : UTC 2013-12-28 15:25:02\nTagged date :\tUTC 2013-12-28 15:25:02\n\nVideo\n\nID :\t1\nFormat :\tAVC\nFormat/Info : Advanced Video Codec\nFormat profile : &lt;a class=&quot;__cf_email__&quot; href=&quot;/cdn-cgi/l/email-protection&quot; data-cfemail=&quot;ffb29e9691bfb3ccd1cf&quot;&gt;[email&amp;#160;protected]&lt;/a&gt;&lt;script cf-hash='f9e31' type=&quot;text/javascript&quot;&gt;\n/* &lt;![CDATA[ */!function(){try{var t=&quot;currentScript&quot;in document?document.currentScript:function(){for(var t=document.getElementsByTagName(&quot;script&quot;),e=t.length;e--;)if(t[e].getAttribute(&quot;cf-hash&quot;))return t[e]}();if(t&amp;&amp;t.previousSibling){var e,r,n,i,c=t.previousSibling,a=c.getAttribute(&quot;data-cfemail&quot;);if(a){for(e=&quot;&quot;,r=parseInt(a.substr(0,2),16),n=2;a.length-n;n+=2)i=parseInt(a.substr(n,2),16)^r,e+=String.fromCharCode(i);e=document.createTextNode(e),c.parentNode.replaceChild(e,c)}}}catch(u){}}();/* ]]&gt; */&lt;/script&gt;\nFormat settings, CABAC :\tYes\nFormat settings, ReFrames : 3 frames\nCodec ID : avc1\nCodec ID/Info : Advanced Video Coding\nDuration :\t46mn 32s\nBit rate : 688 Kbps\nWidth : 854 pixels\nHeight : 480 pixels\nDisplay aspect ratio : 16:9\nFrame rate mode : Constant\nFrame rate : 25.000 fps\nColor space : YUV\nChroma subsampling : 4:2:0\nBit depth : 8 bits\nScan type : Progressive\nBits/(Pixel*Frame) :\t0.067\nStream size : 229 MiB (84%)\nEncoded date : UTC 2013-12-28 15:25:02\nTagged date :\tUTC 2013-12-28 15:25:02\n\nAudio\n\nID :\t2\nFormat : AAC\nFormat/Info : Advanced Audio Codec\nFormat profile : LC\nCodec ID : 40\nDuration :\t46mn 32s\nBit rate mode :\tVariable\nBit rate : 126 Kbps\nChannel(s) : 2 channels\nChannel positions :\tFront: L R\nSampling rate : 44.1 KHz\nCompression mode : Lossy\nStream size : 41.8 MiB (15%)\nEncoded date : UTC 2013-12-28 15:24:58\nTagged date :\tUTC 2013-12-28 15:24:58","torrent":{"xt":"urn:btih:3f760cf86fcfa550edda033d3f51064f4ffac56e","amp;dn":"Koffee+With+Karan+-+Season+4+-+Alia+Bhatt%2C+Varun+Dhawan+and+Sidd","amp;tr":["udp%3A%2F%2Ftracker.openbittorrent.com%3A80","udp%3A%2F%2Fopen.demonii.com%3A1337","udp%3A%2F%2Ftracker.coppersurfer.tk%3A6969","udp%3A%2F%2Fexodus.desync.com%3A6969"],"infoHash":"3f760cf86fcfa550edda033d3f51064f4ffac56e","infoHashBuffer":{"type":"Buffer","data":[63,118,12,248,111,207,165,80,237,218,3,61,63,81,6,79,79,250,197,110]},"announce":[],"urlList":[]}}